<?xml version="1.0" encoding="UTF-8" standalone="no"?><!DOCTYPE svg PUBLIC "-//W3C//DTD SVG 1.1//EN" "http://www.w3.org/Graphics/SVG/1.1/DTD/svg11.dtd"><svg width="100%" height="100%" viewBox="0 0 8000 5000" version="1.1" xmlns="http://www.w3.org/2000/svg" xmlns:xlink="http://www.w3.org/1999/xlink" xml:space="preserve" xmlns:serif="http://www.serif.com/" style="fill-rule:evenodd;clip-rule:evenodd;stroke-linejoin:round;stroke-miterlimit:2;"><path d="M3241.13,72.232c-1355.1,120.933 -1890.64,290.316 -2913.36,560.316c-96.802,268.061 -149.883,483.908 -159.255,647.546c-3.122,54.548 -4.678,105.03 -4.678,151.437c-0,92.814 6.244,169.354 18.734,229.613c306.555,-51.96 581.88,-93.987 880.572,-135.589c-49.968,68.576 -84.321,138.714 -103.056,210.532c-250.74,869.222 -579.79,2132.36 -711.948,3077.29l1363,-257.611c59.334,-446.525 117.884,-935.99 175.646,-1468.4c57.765,-532.399 166.28,-1092.12 325.529,-1678.71c256.051,3.033 530.846,9.276 824.369,21.766c109.658,-373.802 304.448,-928.699 304.448,-1358.2Z" style="fill-rule:nonzero;"/><path d="M3575.19,4815.68l1358.32,-239c46.368,-384.392 78.607,-748.419 126.465,-1143.46c93.703,6.392 184.479,9.55 272.401,9.55c832.824,0 1409.49,-283.444 1797.25,-787.464c211.118,-274.79 429.707,-745.088 429.707,-1219.51c-0,-151.149 -22.219,-302.667 -73.984,-448.405c-122.758,-379.49 -624.543,-797.064 -1081.2,-823.937c-29.178,-1.244 -59.141,-1.842 -89.808,-1.842c-640.782,-0 -1588.68,261.831 -2069.35,413.799c-129.196,344.359 -206.631,575.255 -206.631,888.701c-0,46.666 1.714,95.167 5.223,146.138c103.046,-21.871 246.689,-54.675 430.919,-98.416c-103.046,103.1 -167.058,209.323 -192.039,318.666c-249.559,843.375 -573.771,2070.27 -707.264,2985.18Zm1569.1,-1940.12c82.308,-521.579 182.869,-1007.5 327.869,-1494.93c470.145,12.711 780.248,200.277 780.248,687.182c-0,26.249 -0.898,53.361 -2.725,81.362c-24.981,249.937 -160.811,420.984 -407.494,513.15c-246.683,92.166 -479.315,163.246 -697.898,213.241Z" style="fill:#ee5622;fill-rule:nonzero;"/></svg>